<svg width="19" height="20" viewBox="0 0 19 20" fill="none" xmlns="http://www.w3.org/2000/svg">
<path d="M12.8278 5.75701L7.1718 11.414C7.07629 11.5063 7.00011 11.6166 6.9477 11.7386C6.89529 11.8606 6.8677 11.9918 6.86655 12.1246C6.86539 12.2574 6.8907 12.3891 6.94098 12.512C6.99126 12.6349 7.06551 12.7465 7.1594 12.8404C7.2533 12.9343 7.36495 13.0086 7.48784 13.0588C7.61074 13.1091 7.74242 13.1344 7.8752 13.1333C8.00798 13.1321 8.1392 13.1045 8.2612 13.0521C8.38321 12.9997 8.49355 12.9235 8.5858 12.828L14.2428 7.17201C14.8055 6.60935 15.1216 5.84623 15.1216 5.05051C15.1216 4.25479 14.8055 3.49167 14.2428 2.92901C13.6801 2.36635 12.917 2.05026 12.1213 2.05026C11.3256 2.05026 10.5625 2.36635 9.9998 2.92901L4.3428 8.58601C3.86887 9.04814 3.49143 9.59977 3.23236 10.2089C2.97328 10.818 2.83774 11.4726 2.8336 12.1345C2.82945 12.7964 2.95678 13.4526 3.2082 14.0649C3.45961 14.6773 3.83012 15.2336 4.29821 15.7016C4.76631 16.1696 5.32268 16.5401 5.93505 16.7914C6.54742 17.0427 7.20361 17.17 7.86553 17.1657C8.52746 17.1615 9.18196 17.0258 9.79106 16.7667C10.4002 16.5075 10.9517 16.13 11.4138 15.656L17.0708 10L18.4848 11.414L12.8278 17.071C12.1778 17.7211 11.406 18.2367 10.5567 18.5885C9.7074 18.9403 8.7971 19.1214 7.8778 19.1214C6.9585 19.1214 6.0482 18.9403 5.19888 18.5885C4.34956 18.2367 3.57784 17.7211 2.9278 17.071C2.27776 16.421 1.76211 15.6493 1.41031 14.7999C1.05851 13.9506 0.877441 13.0403 0.877441 12.121C0.877441 11.2017 1.05851 10.2914 1.41031 9.44209C1.76211 8.59277 2.27776 7.82105 2.9278 7.17101L8.5858 1.51501C9.52881 0.604219 10.7918 0.100247 12.1028 0.111639C13.4138 0.123031 14.6679 0.648876 15.5949 1.57592C16.5219 2.50296 17.0478 3.75702 17.0592 5.068C17.0706 6.37899 16.5666 7.642 15.6558 8.58501L9.9998 14.244C9.72113 14.5226 9.39032 14.7436 9.02625 14.8943C8.66219 15.0451 8.27199 15.1227 7.87794 15.1226C7.4839 15.1226 7.09372 15.0449 6.72969 14.8941C6.36566 14.7432 6.0349 14.5222 5.7563 14.2435C5.4777 13.9648 5.25671 13.634 5.10596 13.27C4.95521 12.9059 4.87765 12.5157 4.87769 12.1217C4.87774 11.7276 4.9554 11.3374 5.10623 10.9734C5.25707 10.6094 5.47813 10.2786 5.7568 10L11.4138 4.34301L12.8278 5.75701Z" fill="#1175FF"/>
</svg>
