<svg width="1159" height="579" viewBox="0 0 1159 579" fill="none" xmlns="http://www.w3.org/2000/svg">
<path d="M1154.67 434.826C1145.98 469.129 1121.67 497.789 1085.07 520.233C1048.46 542.679 999.59 558.887 941.849 568.283C826.37 587.073 675.521 578.595 516.685 538.373C357.849 498.15 221.146 433.81 128.528 362.322C82.2179 326.578 46.9493 289.062 25.4388 251.899C3.92993 214.74 -3.80747 177.964 4.87912 143.661C13.5657 109.359 37.8737 80.6982 74.4762 58.2543C111.082 35.8087 159.955 19.6001 217.696 10.2047C333.175 -8.58566 484.024 -0.107859 642.86 40.1147C801.696 80.3374 938.399 144.677 1031.02 216.165C1077.33 251.909 1112.6 289.426 1134.11 326.588C1155.61 363.748 1163.35 400.523 1154.67 434.826Z" stroke="url(#paint0_linear_14_517)"/>
<defs>
<linearGradient id="paint0_linear_14_517" x1="44.6962" y1="123.796" x2="1040.76" y2="537.025" gradientUnits="userSpaceOnUse">
<stop stop-color="#484848"/>
<stop offset="0.491388" stop-color="#484848" stop-opacity="0.36"/>
<stop offset="1" stop-color="#484848"/>
</linearGradient>
</defs>
</svg>
