<svg width="1308" height="821" viewBox="0 0 1308 821" fill="none" xmlns="http://www.w3.org/2000/svg">
<path d="M1772.43 717.123C1754.98 786.03 1706.16 843.564 1632.72 888.589C1559.29 933.617 1461.26 966.116 1345.5 984.951C1113.98 1022.62 811.585 1005.62 493.217 925.001C174.849 844.38 -99.1793 715.413 -284.858 572.096C-377.698 500.437 -448.431 425.205 -491.582 350.655C-534.732 276.107 -550.287 202.272 -532.837 133.364C-515.388 64.4573 -466.563 6.92393 -393.128 -38.1017C-319.691 -83.129 -221.671 -115.628 -105.909 -134.464C125.615 -172.134 428.009 -155.135 746.377 -74.5132C1064.75 6.10824 1338.77 135.075 1524.45 278.392C1617.29 350.051 1688.02 425.283 1731.18 499.833C1774.33 574.38 1789.88 648.216 1772.43 717.123Z" stroke="url(#paint0_linear_14_519)"/>
<defs>
<linearGradient id="paint0_linear_14_519" x1="-452.552" y1="93.6693" x2="1543.65" y2="921.826" gradientUnits="userSpaceOnUse">
<stop stop-color="#484848"/>
<stop offset="0.491388" stop-color="#484848" stop-opacity="0.36"/>
<stop offset="1" stop-color="#484848"/>
</linearGradient>
</defs>
</svg>
