<svg width="581" height="572" viewBox="0 0 581 572" fill="none" xmlns="http://www.w3.org/2000/svg">
<path d="M158.539 92.9508L183.964 68.9715L184.956 68.2647L189.936 64.6934L214.973 46.7349" stroke="#1877F2" stroke-width="1.08501" stroke-linecap="round" stroke-linejoin="round"/>
<path d="M61.9614 318.571L63.7712 284.618L76.2421 252.396L89.2871 222.19L103.642 193.68L122.857 169.515L146.107 151.513L157.559 151.628L170.213 149.307L187.55 133.939L189.989 131.769L204.942 103.514L221.4 70.0531L242.477 41.8817L267.108 31.4671" stroke="#1877F2" stroke-width="1.08501" stroke-linecap="round" stroke-linejoin="round"/>
<path d="M312.627 525.416L283.639 510.33L256.934 490.037L233.611 472.804L211.452 463.061L188.245 459.777L164.791 458.035" stroke="#1877F2" stroke-width="1.08501" stroke-linecap="round" stroke-linejoin="round"/>
<path d="M166.189 131.982L181.996 103.097L200.187 69.9474L200.269 69.7806L222.215 45.5819L225.128 42.3806L226.818 41.8208L227.905 41.6027L234.743 39.3064L254.797 32.5611L260.357 31.2146" stroke="#1877F2" stroke-width="1.08501" stroke-linecap="round" stroke-linejoin="round"/>
<path d="M361.26 231.837L391.071 227.897L430.638 220.188L476.384 211.086L514.621 205.275L542.158 202.213L554.344 202.301" stroke="#1877F2" stroke-width="1.08501" stroke-linecap="round" stroke-linejoin="round"/>
<path d="M456.928 348.882L456.585 349.546L443.136 375.856L433.374 404.072L428.235 410.048L420.79 434.879L418.556 442.308L410.243 452.386L394.82 460.557L371.137 464.502L339.968 461.89L304.582 451.126L270.564 431.521L243.676 408.446L248.507 378.25L253.264 348.821L258.057 319.578L263.08 290.027L268.398 262.93L273.128 239.805L277.664 215.327L282.479 188.784L287.099 165.181L291.597 143.031L296.6 117.799L302.215 89.5855L291.295 73.7183L279.006 60.3832L266.161 50.511L253.667 44.3815L242.349 41.8705L232.681 41.7113L210.699 68.8055L209.736 69.9895L209.426 70.6175L192.519 104.01L177.363 133.003L175.195 135.024L157.456 151.598L154.984 154.123L137.342 172.062L124.924 200.423L113.443 229.055L97.8147 257.454L81.2947 289.119L75.8158 323.804L80.0925 357.162L89.538 387.523L104.575 395.072L114.984 422.873L132.75 430.651L159.114 432.402L188.788 429.645L215.343 429.942L238.471 441.023L263.732 462.904L294.71 485.577L327.782 498.504L357.976 502.367L381.918 498.508L398.156 489.058L410.243 452.386L419.323 416.563L428.235 410.048L436.948 379.152L438.252 376.192L449.791 350.127L456.928 348.882ZM456.928 348.882L458.618 347.113L483.416 321.346L483.714 321.035L494.077 321.605L526.641 286.821L545.225 244.612L542.2 202.295L525.39 164.413L495.15 136.389L451.901 125.19L434.825 131.926L412.914 141.856L387.001 155.955L362.79 169.259L347.371 162.117L334.565 166.329L324.775 163.411L316.561 152.924L307.732 136.621L311.312 106.324L313.802 78.7734L312.929 66.882L309.448 61.5645L305.72 56.6632L299.589 56.0641L291.419 46.5293L282.971 39.0456L274.676 33.9783L253.667 44.3815L234.944 71.6414L219.574 103.683L205.252 130.803L186.945 148.156L172.76 174.868L167.422 209.772L160.95 240.313L146.769 267.971L129.681 299.776L120.782 335.574L120.519 370.382L125.215 402.144L132.75 430.651L144.644 453.119L164.835 457.918L175.796 473.792L192.827 480.431L201.751 488.968L215.631 496.751L230.841 503.997L232.441 504.7L232.62 504.772L232.86 504.882L233.255 505.047L233.826 505.297L234.561 505.631L235.463 507.563L240.417 508.184L241.267 508.565L242.284 509.002L243.577 509.584L245.368 510.361L246.893 511.024L247.963 511.47L252.242 513.269L259.363 516.246L263.425 517.952L263.63 518.029L263.756 518.092L271.903 521.939L281.91 526.645L295.758 533.158L318.241 540.46L338.172 541.297L354.186 536.825L360.688 532.79L367.633 528.483L380.029 520.797L390.67 508.879L393.378 503.572L401.862 486.896L407.142 476.524L411.449 464.487L415.525 455.272L424.014 440.75L434.616 425.018L435.444 423.908L437.06 421.848L452.898 401.504L453.212 401.099L469.142 376.17L484.986 350.213L485.345 349.621L505.119 322.192L505.457 321.722L506.081 320.855L516.559 306.102L519.768 302.438L532.929 287.377L533.014 287.28L546.314 259.667L553.052 245.667L554.389 202.383L540.081 162.606L527.518 150.253L509.726 132.757L495.15 136.389L472.579 143.122L442.508 154.053L406.977 169.793L375.386 183.841L351.072 192.417L332.811 194.533L317.307 191.615L303.2 181.139L287.099 165.181L267.265 149.283L245.269 137.964L223.952 132.319L205.252 130.803L189.876 131.743L177.363 133.003L166.065 131.996L146.007 151.483L134.276 148.026L122.377 141.845L111.656 134.336L104.694 127.911L104.93 125.783L133.745 112.749L158.395 92.9602L169.773 83.544L183.819 68.9816L186.847 68.4962L192.44 69.129L200.141 69.8009L209.736 69.9895L221.278 70.0371L234.944 71.6414L250.453 76.7141L266.834 86.0765L282.703 100.091L296.6 117.799L307.732 136.621L305.036 161.107L315.996 175.285L327.495 181.496L332.811 194.533L334.047 214.783L338.721 231.629L353.078 245.47L381.979 247.222L414.468 247.584L434.6 277.652L436.136 315.533L423.252 351.277L412.304 385.559L404.116 422.075L394.82 460.557L381.918 498.508L363.104 528.894L340.125 530.929L312.716 525.345L295.758 533.158L276.37 522.867L272.656 521.192L270.273 519.396L269.162 518.707L260.794 513.502L251.107 507.461L230.782 495.773L211.403 487.124L192.827 480.431L188.296 459.662L188.788 429.645L191.928 397.508L194.926 367.515L199.302 337.673L205.7 308.537L212.853 281.475L218.972 255.612L222.262 225.738L225.851 190.051L234.244 159.517L245.269 137.964L255.784 113.684L266.834 86.0765L279.006 60.3832L291.419 46.5293" stroke="#1877F2" stroke-width="1.08501" stroke-linecap="round" stroke-linejoin="round"/>
<path d="M452.076 375.169L440.354 401.712L427.498 428.02L422.553 432.989L419.831 440.63L415.062 454.024L414.513 456.308L411.333 464.482L411.273 464.597" stroke="#1877F2" stroke-width="1.08501" stroke-linecap="round" stroke-linejoin="round"/>
<path d="M261.516 518.11L254.926 515.475L248.605 512.941L246.08 511.748L235.386 507.665" stroke="#1877F2" stroke-width="1.08501" stroke-linecap="round" stroke-linejoin="round"/>
<path d="M348.044 131.796L375.331 133.19L375.521 133.195L382.884 131.004" stroke="#1877F2" stroke-width="1.08501" stroke-linecap="round" stroke-linejoin="round"/>
<path d="M348.095 131.791L375.01 133.386L375.387 133.172L385.477 130.168L408.703 123.163L421.749 119.202" stroke="#1877F2" stroke-width="1.08501" stroke-linecap="round" stroke-linejoin="round"/>
<path d="M259.566 517.626L254.596 515.572L251.497 514.308L245.951 511.865L235.386 507.665" stroke="#1877F2" stroke-width="1.08501" stroke-linecap="round" stroke-linejoin="round"/>
<path d="M243.689 408.424L220.399 396.788L191.947 397.488L157.046 402.398L125.241 402.123L104.603 395.052L97.6797 363.735L96.1761 329.464L104.472 294.25L122.86 262.977L138.678 235.713L146.751 206.268L153.744 173.68L168.49 151.722L170.127 149.291L186.965 148.17L208.924 151.284L234.258 159.53L259.907 172.706L282.488 188.792L300.922 202.464L317.885 209.896L334.049 214.788L353.364 214.422L380.412 207.564L417.416 195.12L460.79 180.551L497.924 170.409L525.371 164.424L540.06 162.618" stroke="#1877F2" stroke-width="1.08501" stroke-linecap="round" stroke-linejoin="round"/>
<path d="M276.275 522.955L272.759 521.093L263.748 518.185L263.556 518.11" stroke="#1877F2" stroke-width="1.08501" stroke-linecap="round" stroke-linejoin="round"/>
<path d="M164.846 458.017L159.119 432.493L157.026 402.5L156.204 371.444L158.741 338.443L166.82 304.954L179.164 274.664L189.055 247.266L193.346 216.163L197.455 179.913L208.961 151.274L224.02 132.317L236.93 106.6L250.547 76.6947L266.271 50.4835L283.098 39.0145" stroke="#1877F2" stroke-width="1.08501" stroke-linecap="round" stroke-linejoin="round"/>
<path d="M259.279 516.339L256.042 515.164L246.081 511.747L235.387 507.665" stroke="#1877F2" stroke-width="1.08501" stroke-linecap="round" stroke-linejoin="round"/>
<path d="M348.173 131.818L371.973 135.314L378.076 133.561L378.82 133.354L391.513 129.709L416.067 122.666L421.75 119.203" stroke="#1877F2" stroke-width="1.08501" stroke-linecap="round" stroke-linejoin="round"/>
<path d="M318.954 77.8186L319.852 81.4744L324.214 99.4673L324.535 100.801L324.551 101.916L325.181 134.189L324.846 163.365L327.567 181.454" stroke="#1877F2" stroke-width="1.08501" stroke-linecap="round" stroke-linejoin="round"/>
<path d="M435.338 423.892L434.51 425.002L429.932 430.393" stroke="#1877F2" stroke-width="1.08501" stroke-linecap="round" stroke-linejoin="round"/>
<path d="M362.796 169.196L375.389 183.771L380.417 207.474L391.069 227.899L414.461 247.479L452.28 246.333L492.477 244.592L523.769 244.238L545.182 244.508L553.006 245.562" stroke="#1877F2" stroke-width="1.08501" stroke-linecap="round" stroke-linejoin="round"/>
<path d="M347.362 162.047L363.093 152.942L379.909 142.408L412.904 141.787L442.498 153.983L460.792 180.472L476.396 211.103L492.495 244.625L492.771 283.43L473.078 320.085" stroke="#1877F2" stroke-width="1.08501" stroke-linecap="round" stroke-linejoin="round"/>
<path d="M316.099 72.3255L319.562 90.2358L318.741 121.805L316.57 152.881L316.004 175.249L317.317 191.584L317.891 209.865L319.191 227.811L325.539 243.028L333.371 265.714L335.245 300.563L329.185 339.151L321.222 376.317L313.274 413.792L304.577 451.181L294.694 485.643L283.69 510.323L272.809 521.081" stroke="#1877F2" stroke-width="1.08501" stroke-linecap="round" stroke-linejoin="round"/>
<path d="M252.16 513.365L251.103 513.004L246.112 511.725L235.387 507.665" stroke="#1877F2" stroke-width="1.08501" stroke-linecap="round" stroke-linejoin="round"/>
<path d="M456.556 116.957L472.426 115.728L473.337 115.661L477.42 117.8" stroke="#1877F2" stroke-width="1.08501" stroke-linecap="round" stroke-linejoin="round"/>
<path d="M473.019 320.105L456.933 318.259L436.081 315.491L409.226 311.634L375.003 306.524L335.202 300.548L295.543 294.695L263.098 290.039L238.911 286.358L212.892 281.505L179.193 274.668L146.836 268.031L122.91 263.048L97.902 257.536L76.2578 252.442L60.5474 248.371L53.3672 245.93" stroke="#1877F2" stroke-width="1.08501" stroke-linecap="round" stroke-linejoin="round"/>
<path d="M54.52 188.765L53.3944 172.952L72.4261 147.021L73.2498 145.452L73.6632 145.023L74.3995 143.244L105.072 125.841L127.117 116.336L133.89 112.806" stroke="#1877F2" stroke-width="1.08501" stroke-linecap="round" stroke-linejoin="round"/>
<path d="M327.539 181.442L342.834 178.544L362.827 169.208" stroke="#1877F2" stroke-width="1.08501" stroke-linecap="round" stroke-linejoin="round"/>
<path d="M201.758 489.08L189.692 480.661L175.805 473.905L161.529 466.055L144.656 453.233L130.586 444.32L126.609 438.877L114.997 422.99L102.824 414.233L91.0029 390.529L89.5532 387.642L79.9738 380.244L76.3239 370.674L68.7663 350.878L64.4209 344.705L61.1452 332.753L56.7512 316.678L55.9624 313.834" stroke="#1877F2" stroke-width="1.08501" stroke-linecap="round" stroke-linejoin="round"/>
<path d="M130.588 444.337L121.874 433.988L117.36 429.3L108.55 420.171L102.826 414.249L96.1994 405.186L93.9368 401.702L82.4769 384.104L79.9751 380.26" stroke="#1877F2" stroke-width="1.08501" stroke-linecap="round" stroke-linejoin="round"/>
<path d="M299.609 56.0813L307.151 67.0796L302.235 89.6038L311.332 106.343L318.75 121.878L325.131 134.263L331.427 142.214L338.359 145.507L346.147 145.012L363.123 153.031L387.024 155.975L407.001 169.813L417.447 195.134L430.673 220.303L452.323 246.461L464.851 280.947L457.022 318.332L439.067 351.06L427.37 382.672L419.347 416.591L404.14 422.104L380.993 424.805L349.765 422.532L313.289 413.778L277.255 397.956L248.525 378.277L224.788 367.412L194.942 367.542L156.217 371.399L120.532 370.409L97.6626 363.777L80.1044 357.188L68.7611 350.782L61.896 318.539L55.9558 313.733L54.2204 285.198L53.9496 280.9L60.4556 248.293L68.3074 215.873L84.1937 186.837L109.027 165.397L122.777 169.503L137.356 172.083L153.736 173.69L172.775 174.889L197.428 179.921L225.868 190.072L253.676 203.409L277.683 215.349L299.034 222.653L319.2 227.852L338.742 231.652L361.273 231.959L382.001 247.245L403.204 273.716L409.293 311.692L400.115 350.042L389.737 386.604L380.993 424.805L371.159 464.531L357.998 502.398L340.146 530.961L318.261 540.492" stroke="#1877F2" stroke-width="1.08501" stroke-linecap="round" stroke-linejoin="round"/>
<path d="M291.536 46.4626L301.946 52.3191L305.833 56.593" stroke="#1877F2" stroke-width="1.08501" stroke-linecap="round" stroke-linejoin="round"/>
<path d="M215.595 496.855L211.36 487.224L211.468 463.039L215.307 430.021L220.356 396.876L224.751 367.442L229.356 339.351L234.136 312.415L238.888 286.365L244.372 261.328L249.095 234.884L253.689 203.384L259.937 172.681L267.32 149.26L274.819 126.04L282.785 100.05L291.392 73.6676L299.701 56.0069" stroke="#1877F2" stroke-width="1.08501" stroke-linecap="round" stroke-linejoin="round"/>
<path d="M245.291 510.46L235.388 507.664L232.367 504.802" stroke="#1877F2" stroke-width="1.08501" stroke-linecap="round" stroke-linejoin="round"/>
<path d="M73.8132 145.08L81.6029 150.964L94.4987 158.51L109.158 165.383L134.418 148.034L155.579 128.471L172.711 100.455L192.581 69.139L209.315 53.3533L218.946 44.2653L224.462 42.6892L224.984 42.5837L226.825 41.8549L234.976 39.046L254.799 32.5965" stroke="#1877F2" stroke-width="1.08501" stroke-linecap="round" stroke-linejoin="round"/>
<path d="M346.181 144.881L354.246 142.324L361.423 139.782L368.589 138.113L375.797 135.867L377.771 135.398L404.101 129.061L406.104 128.582L406.325 128.564L420.288 127.497L449.247 125.287L451.925 125.091L465.389 119.299L472.906 115.954L477.415 117.833L513.919 132.976" stroke="#1877F2" stroke-width="1.08501" stroke-linecap="round" stroke-linejoin="round"/>
<path d="M243.5 509.683L235.389 507.664L232.547 504.875" stroke="#1877F2" stroke-width="1.08501" stroke-linecap="round" stroke-linejoin="round"/>
<path d="M230.777 504.1L230.718 495.874L233.618 472.789L238.421 441.103L243.637 408.513" stroke="#1877F2" stroke-width="1.08501" stroke-linecap="round" stroke-linejoin="round"/>
<path d="M242.207 509.102L235.389 507.664L232.787 504.985" stroke="#1877F2" stroke-width="1.08501" stroke-linecap="round" stroke-linejoin="round"/>
<path d="M485.257 349.608L478.371 349.756L462.49 376.073L448.258 401.587L440.351 401.728L433.273 404.067L432.145 407.114L422.557 433.001L418.451 442.309L412.406 460.447L410.311 466.72L410.177 467.114L407.032 476.544L398.046 489.067L379.914 520.81L362.985 528.908L353.396 533.683L338.047 541.313" stroke="#1877F2" stroke-width="1.08501" stroke-linecap="round" stroke-linejoin="round"/>
<path d="M469.046 376.126L462.491 376.038L452.075 375.155" stroke="#1877F2" stroke-width="1.08501" stroke-linecap="round" stroke-linejoin="round"/>
<path d="M313.001 66.812L316.162 72.3217L318.958 77.8108L321.392 83.0997L324.767 93.5622L328.542 102.704L330.812 107.673L331.284 108.92L336.165 122.013L339.327 125.732L341.722 128.264L342.322 129.074L344.586 131.571L354.253 142.313L379.97 142.357L394.532 134.336L406.111 128.572L416.067 122.642L465.395 119.289L509.739 132.642L513.924 132.966L540.085 162.472" stroke="#1877F2" stroke-width="1.08501" stroke-linecap="round" stroke-linejoin="round"/>
<path d="M218.952 44.2188L224.989 42.5377L226.572 42.043" stroke="#1877F2" stroke-width="1.08501" stroke-linecap="round" stroke-linejoin="round"/>
<path d="M133.883 112.777L138.046 117.194L145.911 123.186L155.57 128.484L166.194 132.015" stroke="#1877F2" stroke-width="1.08501" stroke-linecap="round" stroke-linejoin="round"/>
<path d="M241.191 508.665L235.389 507.663L233.182 505.149" stroke="#1877F2" stroke-width="1.08501" stroke-linecap="round" stroke-linejoin="round"/>
<path d="M309.499 61.4943L307.181 66.9928L313.854 78.706L319.603 90.2344L324.519 100.801L328.806 109.759L328.929 111.295L331.463 142.137L334.623 166.276L342.852 178.546L351.134 192.368L353.426 214.372L361.316 231.894" stroke="#1877F2" stroke-width="1.08501" stroke-linecap="round" stroke-linejoin="round"/>
<path d="M321.393 83.1117L323.453 88.0308L324.348 90.8073L325.131 92.8709L327.258 98.1207L330.835 106.339L332.419 109.955L333.484 112.371L334.501 114.1L335.445 115.454L336.172 116.883L341.995 128.428L343.335 129.211L344.764 130.037L346.005 130.762L346.278 130.92L347.27 131.505L347.857 131.744L361.429 139.775L367.079 137.959L371.973 135.293L375.011 133.366L375.522 133.161L382.885 130.971L385.478 130.148L408.593 123.141L421.747 119.186L456.553 116.987L472.909 115.952L473.334 115.691L513.92 132.971L527.521 150.129" stroke="#1877F2" stroke-width="1.08501" stroke-linecap="round" stroke-linejoin="round"/>
<path d="M453.11 401.08L448.253 401.573L432.613 425.806L427.492 428.02L417.795 449.609L417.663 449.907L414.511 456.306L411.332 464.48" stroke="#1877F2" stroke-width="1.08501" stroke-linecap="round" stroke-linejoin="round"/>
<path d="M323.471 88.0356L325.174 92.4952" stroke="#1877F2" stroke-width="1.08501" stroke-linecap="round" stroke-linejoin="round"/>
<path d="M53.2764 172.975L56.7536 175.401L67.7997 180.409L84.2004 186.898L103.571 193.725L124.941 200.505L146.742 206.343L167.436 209.852L193.32 216.219L222.273 225.818L249.081 234.955L273.135 239.884L298.526 241.011L325.524 243.121L353.081 245.548L369.328 269.533L375.034 306.621L368.017 346.225L358.559 383.968L349.747 422.571L339.971 461.955L327.786 498.567L312.721 525.406" stroke="#1877F2" stroke-width="1.08501" stroke-linecap="round" stroke-linejoin="round"/>
<path d="M73.5281 144.922L74.4105 143.251" stroke="#1877F2" stroke-width="1.08501" stroke-linecap="round" stroke-linejoin="round"/>
<path d="M50.7485 210.08L54.3357 211.439L68.4086 215.927L89.3069 222.213L113.537 229.107L138.737 235.75L161.025 240.344L189.084 247.251L219.023 255.615L244.398 261.303L268.429 262.92L298.25 263.427L333.346 265.704L369.316 269.434L403.156 273.662L434.563 277.615L464.777 280.88L492.722 283.454L512.52 285.516L526.567 286.767L532.937 287.226" stroke="#1877F2" stroke-width="1.08501" stroke-linecap="round" stroke-linejoin="round"/>
<path d="M238.817 507.623L235.389 507.664" stroke="#1877F2" stroke-width="1.08501" stroke-linecap="round" stroke-linejoin="round"/>
<path d="M435.338 423.896L432.615 425.809L429.228 431.251L418.224 448.948" stroke="#1877F2" stroke-width="1.08501" stroke-linecap="round" stroke-linejoin="round"/>
<path d="M505.998 320.791L502.872 321.62L502.537 321.994L501.065 323.688L478.381 349.701L466.912 348.902L456.85 348.815" stroke="#1877F2" stroke-width="1.08501" stroke-linecap="round" stroke-linejoin="round"/>
<path d="M257.17 516.802L254.392 515.648L253.987 515.468L245.794 511.991L235.386 507.665" stroke="#1877F2" stroke-width="1.08501" stroke-linecap="round" stroke-linejoin="round"/>
<path d="M238.03 507.281L235.389 507.665" stroke="#1877F2" stroke-width="1.08501" stroke-linecap="round" stroke-linejoin="round"/>
<path d="M237.181 506.901L235.389 507.665" stroke="#1877F2" stroke-width="1.08501" stroke-linecap="round" stroke-linejoin="round"/>
<path d="M158.406 92.9703L159.886 93.8199L164.954 96.8511L172.586 100.458L181.889 103.126L192.542 104.022L204.853 103.505L219.608 103.695L236.889 106.623L255.831 113.698L274.805 126.088L291.657 143.051L305.101 161.13L303.264 181.167L300.979 202.489L299.077 222.667L298.583 240.972L298.293 263.482L295.601 294.742L289.938 329.625L283.676 363.767L277.291 397.999L270.616 431.598L263.782 462.987L257.054 490.03L251.152 507.554L246.937 511.117" stroke="#1877F2" stroke-width="1.08501" stroke-linecap="round" stroke-linejoin="round"/>
<path d="M235.389 507.666L235.352 506.101" stroke="#1877F2" stroke-width="1.08501" stroke-linecap="round" stroke-linejoin="round"/>
<path d="M236.279 506.511L235.388 507.666" stroke="#1877F2" stroke-width="1.08501" stroke-linecap="round" stroke-linejoin="round"/>
<path d="M263.641 518.193L262.98 518.234L261.515 518.109L259.566 517.625L257.169 516.8L254.394 515.634L254.379 515.645L246.238 511.622L235.386 507.665" stroke="#1877F2" stroke-width="1.08501" stroke-linecap="round" stroke-linejoin="round"/>
<path d="M263.516 518.13L262.98 518.234L255.373 515.328L246.269 511.599L235.386 507.665" stroke="#1877F2" stroke-width="1.08501" stroke-linecap="round" stroke-linejoin="round"/>
<path d="M516.479 306.132L502.879 321.702L494.005 321.622L493.74 321.896L466.928 348.964L452.106 375.171L443.08 375.829L436.894 379.123L427.295 382.613L412.258 385.524L389.676 386.541L358.528 383.865L321.191 376.26L283.615 363.686L253.27 348.816L229.381 339.307L199.325 337.677L158.773 338.385L120.831 335.579L96.203 329.486L75.879 323.819L61.9525 318.533" stroke="#1877F2" stroke-width="1.08501" stroke-linecap="round" stroke-linejoin="round"/>
<path d="M72.4357 147.011L73.818 145.12L104.84 127.961L127.117 116.331" stroke="#1877F2" stroke-width="1.08501" stroke-linecap="round" stroke-linejoin="round"/>
<path d="M327.258 98.1352L328.037 100.227L328.542 102.732L332.658 116.831L336.168 122.057L336.345 122.462L336.59 123.032L340.267 131.399L346.196 144.931" stroke="#1877F2" stroke-width="1.08501" stroke-linecap="round" stroke-linejoin="round"/>
<path d="M330.837 106.36L334.694 113.979L336.27 116.763L338.113 119.661L343.799 127.675L346.286 130.961" stroke="#1877F2" stroke-width="1.08501" stroke-linecap="round" stroke-linejoin="round"/>
<path d="M347.254 131.599L347.841 131.838L348.081 131.865L348.159 131.892L367.066 138.057L368.582 138.204L380.796 136.685L394.523 134.437L396.672 134.303L434.856 131.912L472.604 143.105L497.961 170.375L514.674 205.329L523.824 244.303L512.608 285.52L483.738 320.98L473.114 320.102L468.778 325.686L449.82 350.065L439.074 350.973L423.285 351.216L400.128 349.955L368.057 346.092L329.21 339.075L289.933 329.512L258.117 319.523L234.202 312.326L205.768 308.485L166.882 304.851L129.761 299.726L104.527 294.206L81.3829 289.071L63.7849 284.518L54.0311 280.829L53.1239 278.285L53.3538 245.785L53.9354 224.543L54.3097 211.324L67.8702 180.301L94.4407 158.483L122.458 141.829L145.854 123.151L165.016 96.8336L184.947 71.0499L186.918 68.4956L196.862 60.7829L198.731 59.3226L211.348 49.5079L214.894 46.7495L218.872 44.2591L223.343 42.811L225.061 42.4088L232.745 41.7164L236.051 40.4593L246.424 36.5151L260.278 31.2463L267.032 31.465L274.733 33.9851" stroke="#1877F2" stroke-width="1.08501" stroke-linecap="round" stroke-linejoin="round"/>
<path d="M283.093 38.981L293.814 46.0712L294.219 46.3349L298.033 48.8595L301.949 52.3185" stroke="#1877F2" stroke-width="1.08501" stroke-linecap="round" stroke-linejoin="round"/>
<path d="M336.268 116.763L337.077 118.193L343.341 129.252" stroke="#1877F2" stroke-width="1.08501" stroke-linecap="round" stroke-linejoin="round"/>
<path d="M338.108 119.662L340.169 122.889L344.766 130.079" stroke="#1877F2" stroke-width="1.08501" stroke-linecap="round" stroke-linejoin="round"/>
<path d="M343.791 127.676L346.004 130.804" stroke="#1877F2" stroke-width="1.08501" stroke-linecap="round" stroke-linejoin="round"/>
<path d="M53.9669 224.638L52.1517 216.393L50.7519 210.053L54.5053 188.76L56.8577 175.373L81.5875 151.008L111.791 134.386L138.049 117.216L160.018 93.8545L169.919 83.5876" stroke="#1877F2" stroke-width="1.08501" stroke-linecap="round" stroke-linejoin="round"/>
<path d="M324.394 93.9088L328.815 109.756L332.655 116.831L332.944 118.27L333.043 118.815L333.216 119.651L338.405 145.427L347.44 162.06" stroke="#1877F2" stroke-width="1.08501" stroke-linecap="round" stroke-linejoin="round"/>
<path d="M54.3037 285.293L53.7765 282.27L53.125 278.448" stroke="#1877F2" stroke-width="1.08501" stroke-linecap="round" stroke-linejoin="round"/>
<path d="M76.3619 370.688L70.1413 357.106L66.7496 349.719L64.4565 344.714" stroke="#1877F2" stroke-width="1.08501" stroke-linecap="round" stroke-linejoin="round"/>
<path d="M272.382 521.473L263.708 518.178" stroke="#1877F2" stroke-width="1.08501" stroke-linecap="round" stroke-linejoin="round"/>
<path d="M183.967 68.9677L185.065 68.279L189.172 65.6713L196.939 60.7684" stroke="#1877F2" stroke-width="1.08501" stroke-linecap="round" stroke-linejoin="round"/>
<path d="M240.341 508.285L239.565 507.958L235.388 507.664L233.752 505.4" stroke="#1877F2" stroke-width="1.08501" stroke-linecap="round" stroke-linejoin="round"/>
<path d="M239.564 507.958L238.817 507.622L238.029 507.28L237.18 506.9L236.278 506.51L235.352 506.102L234.487 505.733" stroke="#1877F2" stroke-width="1.08501" stroke-linecap="round" stroke-linejoin="round"/>
<path d="M334.302 114.275L339.332 125.777L341.457 128.14" stroke="#1877F2" stroke-width="1.08501" stroke-linecap="round" stroke-linejoin="round"/>
</svg>
