<svg width="22" height="22" viewBox="0 0 22 22" fill="none" xmlns="http://www.w3.org/2000/svg">
<path d="M10.9999 9.16634C13.025 9.16634 14.6666 7.52472 14.6666 5.49967C14.6666 3.47463 13.025 1.83301 10.9999 1.83301C8.97487 1.83301 7.33325 3.47463 7.33325 5.49967C7.33325 7.52472 8.97487 9.16634 10.9999 9.16634Z" fill="#0878FE" stroke="white" stroke-width="0.4625" stroke-linecap="round" stroke-linejoin="round"/>
<path d="M19.25 20.167C19.25 15.6107 15.5563 11.917 11 11.917C6.44366 11.917 2.75 15.6107 2.75 20.167" fill="#0878FE"/>
<path d="M19.25 20.167C19.25 15.6107 15.5563 11.917 11 11.917C6.44366 11.917 2.75 15.6107 2.75 20.167" stroke="white" stroke-width="0.4625" stroke-linecap="round" stroke-linejoin="round"/>
<path d="M7.85718 16.9229H14.1429Z" fill="#0878FE"/>
<path d="M7.85718 16.9229H14.1429" stroke="white" stroke-width="0.4625" stroke-linecap="round" stroke-linejoin="round"/>
<path d="M11 13.5391V20.3083Z" fill="#0878FE"/>
<path d="M11 13.5391V20.3083" stroke="white" stroke-width="0.45" stroke-linecap="round" stroke-linejoin="round"/>
</svg>
