<svg width="22" height="22" viewBox="0 0 22 22" fill="none" xmlns="http://www.w3.org/2000/svg">
<path d="M17.875 7.33333V4.125C17.875 3.36561 17.2594 2.75 16.5 2.75H4.125C3.36561 2.75 2.75 3.36561 2.75 4.125V17.875C2.75 18.6344 3.36561 19.25 4.125 19.25H16.5C17.2594 19.25 17.875 18.6344 17.875 17.875V14.6667" stroke="white" stroke-linejoin="round"/>
<path d="M17.8749 7.33301H11.4583C10.6989 7.33301 10.0833 7.94862 10.0833 8.70801V13.2913C10.0833 14.0507 10.6989 14.6663 11.4583 14.6663H17.8749C18.6343 14.6663 19.2499 14.0507 19.2499 13.2913V8.70801C19.2499 7.94862 18.6343 7.33301 17.8749 7.33301Z" fill="#0878FE" stroke="white" stroke-linejoin="round"/>
<path d="M12.8334 11.0003C12.8334 10.4941 13.2438 10.0837 13.7501 10.0837C14.2563 10.0837 14.6667 10.4941 14.6667 11.0003C14.6667 11.5066 14.2563 11.917 13.7501 11.917C13.2438 11.917 12.8334 11.5066 12.8334 11.0003Z" fill="white"/>
</svg>
