<svg width="96" height="92" viewBox="0 0 96 92" fill="none" xmlns="http://www.w3.org/2000/svg">
<rect width="96" height="92" rx="32" fill="black"/>
<path d="M48.3359 40.1745V43.5343H52.1894H56.0428V40.1745V36.8148H52.1894H48.3359V40.1745Z" fill="#0878FE"/>
<path d="M48.3359 52.0469V55.5679H54.4896H60.6433V66.284V77H65.1681H69.6929V66.284V55.5679H74.2901H78.8872L80.4438 54.282C82.0003 52.996 82.0003 52.996 82.0003 50.761V48.5259H65.1681H48.3359V52.0469Z" fill="white"/>
<path d="M14.4321 29.2025V43.4355H26.0888C38.3876 43.4355 39.5116 43.3133 41.3419 42C43.1402 40.7172 43.7824 39.1289 43.7824 35.7998C43.8145 32.043 43.1081 30.6991 40.5391 29.5079C39.6079 29.0498 38.8372 28.6527 38.8372 28.6222C38.8372 28.5611 39.4794 28.164 40.2501 27.7364C41.9521 26.7896 42.7549 25.3235 42.9475 22.819C43.1081 20.4366 42.5943 18.6652 41.3419 17.2907C39.351 15.1527 39.6721 15.1833 26.4099 15.0916L14.4321 15V29.2025ZM34.4379 21.7195C35.1122 22.2387 35.1764 24.4378 34.5342 25.293C34.1167 25.8428 33.6351 25.8733 28.3366 25.8733H22.6207L22.5243 23.9185C22.4601 22.8495 22.4922 21.7805 22.5886 21.5362C22.8455 20.8948 33.6351 21.078 34.4379 21.7195ZM35.4333 32.8065C36.0756 33.6923 36.0756 35.7692 35.4333 36.655C34.9517 37.2964 34.7911 37.3269 28.6898 37.3269H22.4601V34.7308V32.1346H28.6898C34.7911 32.1346 34.9517 32.1651 35.4333 32.8065Z" fill="#0878FE"/>
<path d="M52.1553 18.521V22.042H57.567H62.9788V32.758V43.4741H66.958H70.9373V32.758V22.042H75.012C78.8639 22.042 79.1504 22.0114 79.7871 21.3378C80.392 20.7255 80.4875 20.2662 80.4875 17.8168V15H66.3214H52.1553V18.521Z" fill="white"/>
<path d="M13.955 50.4548V52.4143L17.9343 57.4968C20.1308 60.3136 21.9135 62.7323 21.9135 62.8854C21.9135 63.0385 19.908 65.4267 17.4567 68.1822L13 73.1728V75.0711V77H16.7882H20.5446L24.3329 72.2543C26.4339 69.6519 28.2803 67.5393 28.4394 67.5086C28.6305 67.5086 30.445 69.6519 32.546 72.2543L36.3343 77H40.0907H43.8789V75.0711V73.1728L39.2948 67.8148C35.3792 63.2835 34.7426 62.3956 35.0927 61.9975C35.3156 61.7526 37.1938 59.5175 39.2311 57.0375L42.9239 52.5368V50.5161V48.5259H39.1993H35.4429L32.1003 53.1185C30.254 55.6291 28.6305 57.7111 28.4394 57.6805C28.2803 57.6805 26.6249 55.6291 24.7785 53.1185L21.436 48.5259H17.7114H13.955V50.4548Z" fill="white"/>
</svg>
