<svg width="69" height="62" viewBox="0 0 69 62" fill="none" xmlns="http://www.w3.org/2000/svg">
<path d="M35.3359 25.1745V28.5342H39.1894H43.0428V25.1745V21.8147H39.1894H35.3359V25.1745Z" fill="#0878FE"/>
<path d="M35.3359 37.0469V40.5679H41.4896H47.6433V51.284V62H52.1681H56.6929V51.284V40.5679H61.2901H65.8872L67.4438 39.282C69.0003 37.996 69.0003 37.996 69.0003 35.761V33.5259H52.1681H35.3359V37.0469Z" fill="black"/>
<path d="M1.43164 14.2025V28.4355H13.0883C25.3871 28.4355 26.5111 28.3134 28.3414 27C30.1397 25.7172 30.7819 24.129 30.7819 20.7998C30.8141 17.043 30.1076 15.6991 27.5386 14.508C26.6074 14.0498 25.8367 13.6528 25.8367 13.6222C25.8367 13.5611 26.479 13.1641 27.2496 12.7365C28.9516 11.7896 29.7544 10.3236 29.947 7.81904C30.1076 5.43669 29.5938 3.6652 28.3414 2.29077C26.3505 0.152759 26.6716 0.183302 13.4094 0.0916727L1.43164 4.3815e-05V14.2025ZM21.4374 6.7195C22.1117 7.23873 22.176 9.43782 21.5337 10.293C21.1163 10.8428 20.6346 10.8733 15.3361 10.8733H9.62018L9.52385 8.91859C9.45962 7.84959 9.49174 6.78058 9.58807 6.53624C9.84497 5.89484 20.6346 6.07809 21.4374 6.7195ZM22.4328 17.8066C23.0751 18.6923 23.0751 20.7693 22.4328 21.655C21.9512 22.2964 21.7906 22.327 15.6893 22.327H9.45962V19.7308V17.1346H15.6893C21.7906 17.1346 21.9512 17.1652 22.4328 17.8066Z" fill="#0878FE"/>
<path d="M39.1562 3.52055V7.04154H44.568H49.9798V17.7576V28.4736H53.959H57.9383V17.7576V7.04154H62.013C65.8649 7.04154 66.1514 7.01092 66.7881 6.33734C67.3929 5.72499 67.4884 5.26573 67.4884 2.81635V-0.000440084H53.3223H39.1562V3.52055Z" fill="black"/>
<path d="M0.955017 35.4548V37.4143L4.93426 42.4968C7.1308 45.3136 8.9135 47.7323 8.9135 47.8854C8.9135 48.0385 6.90796 50.4267 4.45675 53.1822L0 58.1728V60.0711V62H3.78824H7.54464L11.3329 57.2543C13.4339 54.6519 15.2803 52.5393 15.4394 52.5086C15.6305 52.5086 17.445 54.6519 19.546 57.2543L23.3343 62H27.0907H30.8789V60.0711V58.1728L26.2948 52.8148C22.3792 48.2835 21.7426 47.3956 22.0927 46.9975C22.3156 46.7526 24.1938 44.5175 26.2311 42.0375L29.9239 37.5368V35.5161V33.5259H26.1993H22.4429L19.1003 38.1185C17.254 40.6291 15.6305 42.7111 15.4394 42.6805C15.2803 42.6805 13.6249 40.6291 11.7785 38.1185L8.43599 33.5259H4.71142H0.955017V35.4548Z" fill="black"/>
</svg>
