<svg width="69" height="62" viewBox="0 0 69 62" fill="none" xmlns="http://www.w3.org/2000/svg">
<path d="M35.3359 25.1745V28.5343H39.1894H43.0428V25.1745V21.8148H39.1894H35.3359V25.1745Z" fill="#0878FE"/>
<path d="M35.3359 37.0469V40.5679H41.4896H47.6433V51.284V62H52.1681H56.6929V51.284V40.5679H61.2901H65.8872L67.4438 39.282C69.0003 37.996 69.0003 37.996 69.0003 35.761V33.5259H52.1681H35.3359V37.0469Z" fill="white"/>
<path d="M1.43213 14.2025V28.4355H13.0888C25.3876 28.4355 26.5116 28.3133 28.3419 27C30.1402 25.7172 30.7824 24.1289 30.7824 20.7998C30.8146 17.043 30.1081 15.6991 27.5391 14.5079C26.6079 14.0498 25.8372 13.6527 25.8372 13.6222C25.8372 13.5611 26.4794 13.164 27.2501 12.7364C28.9521 11.7896 29.7549 10.3235 29.9475 7.819C30.1081 5.43665 29.5943 3.66515 28.3419 2.29072C26.351 0.152714 26.6721 0.183256 13.4099 0.0916271L1.43213 -1.90735e-06V14.2025ZM21.4379 6.71945C22.1122 7.23868 22.1764 9.43777 21.5342 10.293C21.1167 10.8428 20.6351 10.8733 15.3366 10.8733H9.62067L9.52434 8.91854C9.46011 7.84954 9.49222 6.78054 9.58856 6.53619C9.84546 5.89479 20.6351 6.07805 21.4379 6.71945ZM22.4333 17.8065C23.0756 18.6923 23.0756 20.7692 22.4333 21.655C21.9517 22.2964 21.7911 22.3269 15.6898 22.3269H9.46011V19.7308V17.1346H15.6898C21.7911 17.1346 21.9517 17.1651 22.4333 17.8065Z" fill="#0878FE"/>
<path d="M39.1553 3.52101V7.04199H44.567H49.9788V17.758V28.4741H53.958H57.9373V17.758V7.04199H62.012C65.8639 7.04199 66.1504 7.01138 66.7871 6.3378C67.392 5.72545 67.4875 5.26618 67.4875 2.81681V1.71661e-05H53.3214H39.1553V3.52101Z" fill="white"/>
<path d="M0.955017 35.4548V37.4143L4.93426 42.4968C7.1308 45.3136 8.9135 47.7323 8.9135 47.8854C8.9135 48.0385 6.90796 50.4267 4.45675 53.1822L0 58.1728V60.0711V62H3.78824H7.54464L11.3329 57.2543C13.4339 54.6519 15.2803 52.5393 15.4394 52.5086C15.6305 52.5086 17.445 54.6519 19.546 57.2543L23.3343 62H27.0907H30.8789V60.0711V58.1728L26.2948 52.8148C22.3792 48.2835 21.7426 47.3956 22.0927 46.9975C22.3156 46.7526 24.1938 44.5175 26.2311 42.0375L29.9239 37.5368V35.5161V33.5259H26.1993H22.4429L19.1003 38.1185C17.254 40.6291 15.6305 42.7111 15.4394 42.6805C15.2803 42.6805 13.6249 40.6291 11.7785 38.1185L8.43599 33.5259H4.71142H0.955017V35.4548Z" fill="white"/>
</svg>
