<svg width="14" height="14" viewBox="0 0 14 14" fill="none" xmlns="http://www.w3.org/2000/svg">
<path d="M7.00016 0.333344C10.6802 0.333344 13.6668 3.32001 13.6668 7.00001C13.6668 10.68 10.6802 13.6667 7.00016 13.6667C3.32016 13.6667 0.333496 10.68 0.333496 7.00001C0.333496 3.32001 3.32016 0.333344 7.00016 0.333344ZM7.00016 12.3333C9.94683 12.3333 12.3335 9.94668 12.3335 7.00001C12.3335 4.05334 9.94683 1.66668 7.00016 1.66668C4.0535 1.66668 1.66683 4.05334 1.66683 7.00001C1.66683 9.94668 4.0535 12.3333 7.00016 12.3333ZM9.3575 3.70001L10.3002 4.64268L7.00016 7.94268L6.0575 7.00001L9.3575 3.70001Z" fill="white"/>
</svg>
