<svg width="50" height="50" viewBox="0 0 50 50" fill="none" xmlns="http://www.w3.org/2000/svg">
<path d="M39.9335 15.6666V11.9333C39.9335 9.87435 38.2591 8.19995 36.2002 8.19995H11.9335C8.84603 8.19995 6.3335 10.7125 6.3335 13.8V36.1999C6.3335 40.3085 9.6823 41.7999 11.9335 41.7999H39.9335C41.9924 41.7999 43.6668 40.1255 43.6668 38.0666V19.4C43.6668 17.341 41.9924 15.6666 39.9335 15.6666ZM36.2002 32.4666H32.4668V25H36.2002V32.4666ZM11.9335 15.6666C11.4529 15.6451 10.9991 15.4391 10.6665 15.0913C10.334 14.7436 10.1485 14.2811 10.1485 13.8C10.1485 13.3188 10.334 12.8563 10.6665 12.5086C10.9991 12.1608 11.4529 11.9548 11.9335 11.9333H36.2002V15.6666H11.9335Z" fill="url(#paint0_linear_123_923)"/>
<defs>
<linearGradient id="paint0_linear_123_923" x1="13.1391" y1="58.2499" x2="59.6101" y2="18.0428" gradientUnits="userSpaceOnUse">
<stop stop-color="#101366"/>
<stop offset="0.572917" stop-color="#0084FF"/>
<stop offset="0.895833" stop-color="#8EA7FF"/>
</linearGradient>
</defs>
</svg>
