<svg width="22" height="22" viewBox="0 0 22 22" fill="none" xmlns="http://www.w3.org/2000/svg">
<path d="M12.1257 15.5832C12.2096 15.6331 12.2923 15.6807 12.3751 15.7249C12.4881 15.7869 12.6126 15.8254 12.741 15.838C12.8693 15.8506 12.9989 15.8371 13.1219 15.7982C13.2449 15.7594 13.3587 15.696 13.4565 15.6119C13.5543 15.5278 13.634 15.4247 13.6909 15.3089C13.7997 15.0879 13.8801 15.0993 14.0728 14.8329C14.304 14.5122 14.6984 14.0521 15.1041 13.958C15.4906 13.8696 15.8816 13.839 16.1468 13.8333C16.6398 13.822 17.4139 14.0305 18.3296 14.5677C19.2635 15.1163 19.9095 15.5855 20.271 15.8677C20.5249 16.066 20.6903 16.355 20.7164 16.6735C20.764 17.2333 20.6779 18.1672 19.8619 19.0954C18.5755 20.5585 16.6217 21.1037 14.2609 20.3285C11.3352 19.3634 8.67495 17.7288 6.49195 15.5549C4.31806 13.3716 2.6832 10.7115 1.71722 7.78585C0.943149 5.42512 1.48828 3.47012 2.95255 2.18492C3.87962 1.36892 4.81348 1.28279 5.37335 1.33039C5.69295 1.35645 5.98082 1.52305 6.17915 1.77465C6.46248 2.13732 6.93055 2.78332 7.47795 3.71719C8.01628 4.63292 8.24975 5.40699 8.21462 5.89999C8.18742 6.25132 8.18515 6.63325 8.08768 6.94379C7.96302 7.34045 7.53462 7.74279 7.21502 7.97512C6.94755 8.16779 6.95888 8.24712 6.73902 8.35592C6.62303 8.41254 6.51975 8.49213 6.43544 8.58986C6.35113 8.68758 6.28755 8.80142 6.24855 8.92446C6.20955 9.04749 6.19595 9.17717 6.20856 9.30562C6.22118 9.43407 6.25976 9.55862 6.32195 9.67172C6.36728 9.75332 6.41375 9.83719 6.46362 9.92105C7.83635 12.2611 9.7857 14.2105 12.1257 15.5832Z" stroke="#0084FF" stroke-width="1.13333"/>
</svg>
