<svg width="50" height="50" viewBox="0 0 50 50" fill="none" xmlns="http://www.w3.org/2000/svg">
<path d="M20.0225 12.5556C19.3624 12.5556 18.7294 12.8178 18.2626 13.2846C17.7958 13.7513 17.5336 14.3844 17.5336 15.0445C17.5336 15.7046 17.7958 16.3376 18.2626 16.8044C18.7294 17.2712 19.3624 17.5334 20.0225 17.5334H33.9254L30.7073 20.7515C30.2539 21.2209 30.0031 21.8496 30.0087 22.5022C30.0144 23.1548 30.2762 23.779 30.7376 24.2405C31.1991 24.7019 31.8233 24.9637 32.4759 24.9694C33.1285 24.975 33.7572 24.7242 34.2266 24.2708L41.6933 16.8041C42.1599 16.3374 42.422 15.7045 42.422 15.0445C42.422 14.3845 42.1599 13.7516 41.6933 13.2848L34.2266 5.81818C33.997 5.58046 33.7224 5.39085 33.4187 5.26041C33.1151 5.12997 32.7885 5.06132 32.458 5.05844C32.1275 5.05557 31.7998 5.11855 31.4939 5.24369C31.188 5.36883 30.9102 5.55364 30.6765 5.78733C30.4428 6.02102 30.258 6.29891 30.1328 6.60478C30.0077 6.91066 29.9447 7.23839 29.9476 7.56887C29.9505 7.89934 30.0191 8.22593 30.1495 8.52958C30.28 8.83324 30.4696 9.10787 30.7073 9.33747L33.9254 12.5556H20.0225Z" fill="url(#paint0_linear_123_935)"/>
<path d="M29.9781 37.4445C30.6382 37.4445 31.2712 37.1823 31.738 36.7155C32.2048 36.2487 32.467 35.6157 32.467 34.9556C32.467 34.2955 32.2048 33.6624 31.738 33.1957C31.2712 32.7289 30.6382 32.4667 29.9781 32.4667H16.0751L19.2933 29.2486C19.531 29.019 19.7206 28.7443 19.851 28.4407C19.9815 28.137 20.0501 27.8104 20.053 27.48C20.0559 27.1495 19.9929 26.8218 19.8678 26.5159C19.7426 26.21 19.5578 25.9321 19.3241 25.6984C19.0904 25.4648 18.8126 25.2799 18.5067 25.1548C18.2008 25.0297 17.8731 24.9667 17.5426 24.9696C17.2121 24.9724 16.8855 25.0411 16.5819 25.1715C16.2782 25.302 16.0036 25.4916 15.774 25.7293L8.30733 33.196C7.84073 33.6627 7.57861 34.2956 7.57861 34.9556C7.57861 35.6156 7.84073 36.2485 8.30733 36.7152L15.774 44.1819C16.2434 44.6353 16.8721 44.8861 17.5247 44.8805C18.1773 44.8748 18.8015 44.613 19.263 44.1516C19.7244 43.6901 19.9862 43.0659 19.9918 42.4133C19.9975 41.7607 19.7467 41.132 19.2933 40.6626L16.0751 37.4445H29.9781Z" fill="url(#paint1_linear_123_935)"/>
<defs>
<linearGradient id="paint0_linear_123_935" x1="13.9303" y1="64.3769" x2="65.7254" y2="29.0872" gradientUnits="userSpaceOnUse">
<stop stop-color="#101366"/>
<stop offset="0.572917" stop-color="#1877F2"/>
<stop offset="0.895833" stop-color="#ACCAFF"/>
</linearGradient>
<linearGradient id="paint1_linear_123_935" x1="13.9303" y1="64.3769" x2="65.7254" y2="29.0872" gradientUnits="userSpaceOnUse">
<stop stop-color="#101366"/>
<stop offset="0.572917" stop-color="#1877F2"/>
<stop offset="0.895833" stop-color="#ACCAFF"/>
</linearGradient>
</defs>
</svg>
