<svg width="21" height="20" viewBox="0 0 21 20" fill="none" xmlns="http://www.w3.org/2000/svg">
<path d="M10.0468 3.59999C8.94238 3.59999 8.04678 4.49519 8.04678 5.59999C8.04678 6.70479 8.94238 7.59999 10.0468 7.59999C11.1516 7.59999 12.0468 6.70479 12.0468 5.59999C12.0468 4.49519 11.1516 3.59999 10.0468 3.59999ZM8.44678 15.6C8.44678 16.0416 8.80518 16.4 9.24678 16.4H10.8468C11.2884 16.4 11.6468 16.0416 11.6468 15.6V9.99999C11.6468 9.55839 11.2884 9.19999 10.8468 9.19999H9.24678C8.80518 9.19999 8.44678 9.55839 8.44678 9.99999V15.6ZM10.0468 19.6C4.74478 19.6 0.446777 15.302 0.446777 9.99999C0.446777 4.69799 4.74478 0.399994 10.0468 0.399994C15.3488 0.399994 19.6468 4.69799 19.6468 9.99999C19.6468 15.302 15.3488 19.6 10.0468 19.6Z" fill="#0084FF" stroke="#0084FF" stroke-width="0.8"/>
</svg>
