<svg width="24" height="20" viewBox="0 0 24 20" fill="none" xmlns="http://www.w3.org/2000/svg">
<path d="M22.8043 3.32692C22.6254 3.23256 22.4239 3.18931 22.222 3.20191C22.02 3.2145 21.8255 3.28246 21.6596 3.39832L18.2007 5.80099C18.0501 5.90521 17.9271 6.04445 17.8422 6.20672C17.7573 6.36899 17.7131 6.54945 17.7134 6.73259V13.2674C17.7131 13.4507 17.7573 13.6313 17.8422 13.7937C17.9271 13.9562 18.0501 14.0956 18.2007 14.2001L21.6585 16.6028C21.8248 16.7182 22.0195 16.7858 22.2214 16.7984C22.4234 16.811 22.625 16.768 22.8043 16.6742C22.9771 16.5853 23.1222 16.4507 23.2237 16.285C23.3253 16.1194 23.3793 15.929 23.38 15.7347V4.26532C23.3791 4.0712 23.325 3.88105 23.2234 3.71558C23.1219 3.55012 22.977 3.41568 22.8043 3.32692ZM13.1755 19.0667C14.0781 19.0655 14.9433 18.7064 15.5816 18.0682C16.2198 17.4299 16.5788 16.5647 16.58 15.6621V4.33785C16.5788 3.43528 16.2198 2.57002 15.5816 1.93181C14.9433 1.29359 14.0781 0.934519 13.1755 0.933319H4.11791C3.21534 0.934519 2.35008 1.29359 1.71187 1.93181C1.07365 2.57002 0.714578 3.43528 0.713379 4.33785L0.713379 15.6621C0.714578 16.5647 1.07365 17.4299 1.71187 18.0682C2.35008 18.7064 3.21534 19.0655 4.11791 19.0667H13.1755Z" fill="#0084FF"/>
</svg>
